<mxfile host="app.diagrams.net" modified="2024-06-24T01:37:37.214Z" agent="Mozilla/5.0 (Windows NT 10.0; Win64; x64) AppleWebKit/537.36 (KHTML, like Gecko) Chrome/126.0.0.0 Safari/537.36" etag="bUKWTj4OOIp3XjoEmKCi" version="24.5.5" type="device">
  <diagram name="Page-1" id="ClK9il2FMz57yKsgxL3r">
    <mxGraphModel dx="989" dy="532" grid="1" gridSize="10" guides="1" tooltips="1" connect="1" arrows="1" fold="1" page="1" pageScale="1" pageWidth="827" pageHeight="1169" math="0" shadow="0">
      <root>
        <mxCell id="0" />
        <mxCell id="1" parent="0" />
        <mxCell id="Vj8tIXMrXNNAAFN6tdgJ-1" value="" style="dashed=0;outlineConnect=0;html=1;align=center;labelPosition=center;verticalLabelPosition=bottom;verticalAlign=top;shape=mxgraph.weblogos.arduino;fillColor=#36868D;strokeColor=none" vertex="1" parent="1">
          <mxGeometry x="418.93" y="188.9" width="42.13" height="20" as="geometry" />
        </mxCell>
        <mxCell id="Vj8tIXMrXNNAAFN6tdgJ-14" style="edgeStyle=orthogonalEdgeStyle;rounded=0;orthogonalLoop=1;jettySize=auto;html=1;entryX=0;entryY=0.5;entryDx=0;entryDy=0;startArrow=classic;startFill=1;" edge="1" parent="1" source="Vj8tIXMrXNNAAFN6tdgJ-2" target="Vj8tIXMrXNNAAFN6tdgJ-10">
          <mxGeometry relative="1" as="geometry" />
        </mxCell>
        <mxCell id="Vj8tIXMrXNNAAFN6tdgJ-2" value="" style="shape=image;html=1;verticalAlign=top;verticalLabelPosition=bottom;labelBackgroundColor=#ffffff;imageAspect=0;aspect=fixed;image=https://cdn2.iconfinder.com/data/icons/electronic-13/480/3-electronic-arduino-chipset-icon-2-128.png" vertex="1" parent="1">
          <mxGeometry x="400" y="200" width="80" height="80" as="geometry" />
        </mxCell>
        <mxCell id="Vj8tIXMrXNNAAFN6tdgJ-21" style="edgeStyle=orthogonalEdgeStyle;rounded=0;orthogonalLoop=1;jettySize=auto;html=1;entryX=0.75;entryY=1;entryDx=0;entryDy=0;" edge="1" parent="1" source="Vj8tIXMrXNNAAFN6tdgJ-3" target="Vj8tIXMrXNNAAFN6tdgJ-2">
          <mxGeometry relative="1" as="geometry" />
        </mxCell>
        <mxCell id="Vj8tIXMrXNNAAFN6tdgJ-3" value="" style="sketch=0;outlineConnect=0;fontColor=#232F3E;gradientColor=none;fillColor=#7AA116;strokeColor=none;dashed=0;verticalLabelPosition=bottom;verticalAlign=top;align=center;html=1;fontSize=12;fontStyle=0;aspect=fixed;pointerEvents=1;shape=mxgraph.aws4.iot_thing_temperature_sensor;" vertex="1" parent="1">
          <mxGeometry x="460" y="320" width="62" height="62" as="geometry" />
        </mxCell>
        <mxCell id="Vj8tIXMrXNNAAFN6tdgJ-20" style="edgeStyle=orthogonalEdgeStyle;rounded=0;orthogonalLoop=1;jettySize=auto;html=1;entryX=0.25;entryY=1;entryDx=0;entryDy=0;" edge="1" parent="1" source="Vj8tIXMrXNNAAFN6tdgJ-4" target="Vj8tIXMrXNNAAFN6tdgJ-2">
          <mxGeometry relative="1" as="geometry" />
        </mxCell>
        <mxCell id="Vj8tIXMrXNNAAFN6tdgJ-4" value="" style="shape=image;html=1;verticalAlign=top;verticalLabelPosition=bottom;labelBackgroundColor=#ffffff;imageAspect=0;aspect=fixed;image=https://cdn2.iconfinder.com/data/icons/business-and-education-1/512/150_Sensor_body_Data_Human_Science_technology_smart-128.png" vertex="1" parent="1">
          <mxGeometry x="360" y="320" width="64" height="64" as="geometry" />
        </mxCell>
        <mxCell id="Vj8tIXMrXNNAAFN6tdgJ-22" style="edgeStyle=orthogonalEdgeStyle;rounded=0;orthogonalLoop=1;jettySize=auto;html=1;entryX=0.25;entryY=0;entryDx=0;entryDy=0;startArrow=classic;startFill=1;endArrow=none;endFill=0;" edge="1" parent="1" source="Vj8tIXMrXNNAAFN6tdgJ-5" target="Vj8tIXMrXNNAAFN6tdgJ-2">
          <mxGeometry relative="1" as="geometry" />
        </mxCell>
        <mxCell id="Vj8tIXMrXNNAAFN6tdgJ-5" value="" style="shape=image;html=1;verticalAlign=top;verticalLabelPosition=bottom;labelBackgroundColor=#ffffff;imageAspect=0;aspect=fixed;image=https://cdn2.iconfinder.com/data/icons/circle-icons-1/64/rgb-128.png" vertex="1" parent="1">
          <mxGeometry x="358.93" y="80" width="60" height="60" as="geometry" />
        </mxCell>
        <mxCell id="Vj8tIXMrXNNAAFN6tdgJ-23" style="edgeStyle=orthogonalEdgeStyle;rounded=0;orthogonalLoop=1;jettySize=auto;html=1;entryX=0.75;entryY=0;entryDx=0;entryDy=0;startArrow=classic;startFill=1;endArrow=none;endFill=0;" edge="1" parent="1" source="Vj8tIXMrXNNAAFN6tdgJ-6" target="Vj8tIXMrXNNAAFN6tdgJ-2">
          <mxGeometry relative="1" as="geometry" />
        </mxCell>
        <mxCell id="Vj8tIXMrXNNAAFN6tdgJ-6" value="" style="verticalLabelPosition=bottom;outlineConnect=0;align=center;dashed=0;html=1;verticalAlign=top;shape=mxgraph.pid2misc.fan;fanType=common" vertex="1" parent="1">
          <mxGeometry x="460" y="80" width="60" height="60" as="geometry" />
        </mxCell>
        <mxCell id="Vj8tIXMrXNNAAFN6tdgJ-12" style="edgeStyle=orthogonalEdgeStyle;rounded=0;orthogonalLoop=1;jettySize=auto;html=1;startArrow=none;startFill=0;" edge="1" parent="1" source="Vj8tIXMrXNNAAFN6tdgJ-7" target="Vj8tIXMrXNNAAFN6tdgJ-2">
          <mxGeometry relative="1" as="geometry" />
        </mxCell>
        <mxCell id="Vj8tIXMrXNNAAFN6tdgJ-7" value="" style="image;points=[];aspect=fixed;html=1;align=center;shadow=0;dashed=0;image=img/lib/allied_telesis/computer_and_terminals/Personal_Computer.svg;" vertex="1" parent="1">
          <mxGeometry x="220" y="200" width="59.03" height="80" as="geometry" />
        </mxCell>
        <mxCell id="Vj8tIXMrXNNAAFN6tdgJ-13" value="" style="swimlane;startSize=0;" vertex="1" parent="1">
          <mxGeometry x="600" y="120" width="280" height="280" as="geometry" />
        </mxCell>
        <mxCell id="Vj8tIXMrXNNAAFN6tdgJ-16" style="edgeStyle=orthogonalEdgeStyle;rounded=0;orthogonalLoop=1;jettySize=auto;html=1;startArrow=classic;startFill=1;" edge="1" parent="Vj8tIXMrXNNAAFN6tdgJ-13" source="Vj8tIXMrXNNAAFN6tdgJ-10" target="Vj8tIXMrXNNAAFN6tdgJ-9">
          <mxGeometry relative="1" as="geometry" />
        </mxCell>
        <mxCell id="Vj8tIXMrXNNAAFN6tdgJ-10" value="" style="shape=image;html=1;verticalAlign=top;verticalLabelPosition=bottom;labelBackgroundColor=#ffffff;imageAspect=0;aspect=fixed;image=https://cdn1.iconfinder.com/data/icons/ionicons-fill-vol-2/512/logo-python-128.png" vertex="1" parent="Vj8tIXMrXNNAAFN6tdgJ-13">
          <mxGeometry x="40" y="88.9" width="62.2" height="62.2" as="geometry" />
        </mxCell>
        <mxCell id="Vj8tIXMrXNNAAFN6tdgJ-8" value="" style="shape=image;html=1;verticalAlign=top;verticalLabelPosition=bottom;labelBackgroundColor=#ffffff;imageAspect=0;aspect=fixed;image=https://cdn1.iconfinder.com/data/icons/fruit-136/64/Fruit_iconfree_Filled_Outline_raspberry-healthy-organic-food-fruit_icon-128.png" vertex="1" parent="Vj8tIXMrXNNAAFN6tdgJ-13">
          <mxGeometry x="120" y="10" width="40" height="40" as="geometry" />
        </mxCell>
        <mxCell id="Vj8tIXMrXNNAAFN6tdgJ-9" value="" style="sketch=0;outlineConnect=0;fontColor=#232F3E;gradientColor=none;fillColor=#C925D1;strokeColor=none;dashed=0;verticalLabelPosition=bottom;verticalAlign=top;align=center;html=1;fontSize=12;fontStyle=0;aspect=fixed;pointerEvents=1;shape=mxgraph.aws4.rds_mysql_instance;" vertex="1" parent="Vj8tIXMrXNNAAFN6tdgJ-13">
          <mxGeometry x="180" y="89.1" width="62" height="62" as="geometry" />
        </mxCell>
        <mxCell id="Vj8tIXMrXNNAAFN6tdgJ-17" style="edgeStyle=orthogonalEdgeStyle;rounded=0;orthogonalLoop=1;jettySize=auto;html=1;startArrow=classic;startFill=1;" edge="1" parent="Vj8tIXMrXNNAAFN6tdgJ-13" source="Vj8tIXMrXNNAAFN6tdgJ-11" target="Vj8tIXMrXNNAAFN6tdgJ-9">
          <mxGeometry relative="1" as="geometry" />
        </mxCell>
        <mxCell id="Vj8tIXMrXNNAAFN6tdgJ-11" value="" style="dashed=0;outlineConnect=0;html=1;align=center;labelPosition=center;verticalLabelPosition=bottom;verticalAlign=top;shape=mxgraph.weblogos.apache" vertex="1" parent="Vj8tIXMrXNNAAFN6tdgJ-13">
          <mxGeometry x="196" y="200" width="30" height="60" as="geometry" />
        </mxCell>
        <mxCell id="Vj8tIXMrXNNAAFN6tdgJ-31" value="Python script" style="text;html=1;align=center;verticalAlign=middle;resizable=0;points=[];autosize=1;strokeColor=none;fillColor=none;" vertex="1" parent="Vj8tIXMrXNNAAFN6tdgJ-13">
          <mxGeometry x="26.100000000000023" y="150" width="90" height="30" as="geometry" />
        </mxCell>
        <mxCell id="Vj8tIXMrXNNAAFN6tdgJ-32" value="MySQL database" style="text;html=1;align=center;verticalAlign=middle;resizable=0;points=[];autosize=1;strokeColor=none;fillColor=none;" vertex="1" parent="Vj8tIXMrXNNAAFN6tdgJ-13">
          <mxGeometry x="151" y="59.099999999999994" width="120" height="30" as="geometry" />
        </mxCell>
        <mxCell id="Vj8tIXMrXNNAAFN6tdgJ-33" value="Apache WebServer" style="text;html=1;align=center;verticalAlign=middle;resizable=0;points=[];autosize=1;strokeColor=none;fillColor=none;" vertex="1" parent="Vj8tIXMrXNNAAFN6tdgJ-13">
          <mxGeometry x="140" y="250" width="130" height="30" as="geometry" />
        </mxCell>
        <mxCell id="Vj8tIXMrXNNAAFN6tdgJ-38" value="" style="shape=image;html=1;verticalAlign=top;verticalLabelPosition=bottom;labelBackgroundColor=#ffffff;imageAspect=0;aspect=fixed;image=https://cdn1.iconfinder.com/data/icons/ionicons-fill-vol-2/512/logo-javascript-128.png;imageBackground=none;" vertex="1" parent="Vj8tIXMrXNNAAFN6tdgJ-13">
          <mxGeometry x="166" y="190" width="30" height="30" as="geometry" />
        </mxCell>
        <mxCell id="Vj8tIXMrXNNAAFN6tdgJ-35" value="" style="dashed=0;outlineConnect=0;html=1;align=center;labelPosition=center;verticalLabelPosition=bottom;verticalAlign=top;shape=mxgraph.weblogos.html5" vertex="1" parent="Vj8tIXMrXNNAAFN6tdgJ-13">
          <mxGeometry x="138.76" y="200" width="21.24" height="30" as="geometry" />
        </mxCell>
        <mxCell id="Vj8tIXMrXNNAAFN6tdgJ-36" value="" style="shape=image;html=1;verticalAlign=top;verticalLabelPosition=bottom;labelBackgroundColor=#ffffff;imageAspect=0;aspect=fixed;image=https://cdn0.iconfinder.com/data/icons/long-shadow-web-icons/512/css-128.png" vertex="1" parent="Vj8tIXMrXNNAAFN6tdgJ-13">
          <mxGeometry x="160" y="224" width="26" height="26" as="geometry" />
        </mxCell>
        <mxCell id="Vj8tIXMrXNNAAFN6tdgJ-37" value="" style="shape=image;html=1;verticalAlign=top;verticalLabelPosition=bottom;labelBackgroundColor=#ffffff;imageAspect=0;aspect=fixed;image=https://cdn4.iconfinder.com/data/icons/scripting-and-programming-languages/512/php-128.png" vertex="1" parent="Vj8tIXMrXNNAAFN6tdgJ-13">
          <mxGeometry x="121" y="230" width="30" height="30" as="geometry" />
        </mxCell>
        <mxCell id="Vj8tIXMrXNNAAFN6tdgJ-19" style="edgeStyle=orthogonalEdgeStyle;rounded=0;orthogonalLoop=1;jettySize=auto;html=1;startArrow=classic;startFill=1;" edge="1" parent="1" source="Vj8tIXMrXNNAAFN6tdgJ-18" target="Vj8tIXMrXNNAAFN6tdgJ-11">
          <mxGeometry relative="1" as="geometry" />
        </mxCell>
        <mxCell id="Vj8tIXMrXNNAAFN6tdgJ-18" value="" style="image;points=[];aspect=fixed;html=1;align=center;shadow=0;dashed=0;image=img/lib/allied_telesis/computer_and_terminals/Personal_Computer.svg;flipV=0;flipH=1;" vertex="1" parent="1">
          <mxGeometry x="950" y="318.2" width="45.6" height="61.800000000000004" as="geometry" />
        </mxCell>
        <mxCell id="Vj8tIXMrXNNAAFN6tdgJ-24" value="Dev computer" style="text;html=1;align=center;verticalAlign=middle;resizable=0;points=[];autosize=1;strokeColor=none;fillColor=none;" vertex="1" parent="1">
          <mxGeometry x="199.51" y="280" width="100" height="30" as="geometry" />
        </mxCell>
        <mxCell id="Vj8tIXMrXNNAAFN6tdgJ-25" value="LM35 sensor" style="text;html=1;align=center;verticalAlign=middle;resizable=0;points=[];autosize=1;strokeColor=none;fillColor=none;" vertex="1" parent="1">
          <mxGeometry x="446" y="390" width="90" height="30" as="geometry" />
        </mxCell>
        <mxCell id="Vj8tIXMrXNNAAFN6tdgJ-26" value="LD2410B sensor" style="text;html=1;align=center;verticalAlign=middle;resizable=0;points=[];autosize=1;strokeColor=none;fillColor=none;" vertex="1" parent="1">
          <mxGeometry x="337" y="390" width="110" height="30" as="geometry" />
        </mxCell>
        <mxCell id="Vj8tIXMrXNNAAFN6tdgJ-27" value="RGB led" style="text;html=1;align=center;verticalAlign=middle;resizable=0;points=[];autosize=1;strokeColor=none;fillColor=none;" vertex="1" parent="1">
          <mxGeometry x="353.93" y="50" width="70" height="30" as="geometry" />
        </mxCell>
        <mxCell id="Vj8tIXMrXNNAAFN6tdgJ-28" value="28BJY-48 motor fan" style="text;html=1;align=center;verticalAlign=middle;resizable=0;points=[];autosize=1;strokeColor=none;fillColor=none;" vertex="1" parent="1">
          <mxGeometry x="426" y="50" width="130" height="30" as="geometry" />
        </mxCell>
        <mxCell id="Vj8tIXMrXNNAAFN6tdgJ-29" value="Arduino Uno R3" style="text;html=1;align=center;verticalAlign=middle;resizable=0;points=[];autosize=1;strokeColor=none;fillColor=none;" vertex="1" parent="1">
          <mxGeometry x="385" y="260" width="110" height="30" as="geometry" />
        </mxCell>
        <mxCell id="Vj8tIXMrXNNAAFN6tdgJ-30" value="Raspberry Pi 3 Edge Server" style="text;html=1;align=center;verticalAlign=middle;resizable=0;points=[];autosize=1;strokeColor=none;fillColor=none;" vertex="1" parent="1">
          <mxGeometry x="655" y="90" width="170" height="30" as="geometry" />
        </mxCell>
        <mxCell id="Vj8tIXMrXNNAAFN6tdgJ-34" value="User&#39;s browser" style="text;html=1;align=center;verticalAlign=middle;resizable=0;points=[];autosize=1;strokeColor=none;fillColor=none;" vertex="1" parent="1">
          <mxGeometry x="922.8" y="384" width="100" height="30" as="geometry" />
        </mxCell>
        <mxCell id="Vj8tIXMrXNNAAFN6tdgJ-39" value="USB connection" style="text;html=1;align=center;verticalAlign=middle;resizable=0;points=[];autosize=1;strokeColor=none;fillColor=none;" vertex="1" parent="1">
          <mxGeometry x="290" y="208.9" width="110" height="30" as="geometry" />
        </mxCell>
        <mxCell id="Vj8tIXMrXNNAAFN6tdgJ-41" value="Serial communication" style="text;html=1;align=center;verticalAlign=middle;resizable=0;points=[];autosize=1;strokeColor=none;fillColor=none;" vertex="1" parent="1">
          <mxGeometry x="490" y="208.9" width="140" height="30" as="geometry" />
        </mxCell>
      </root>
    </mxGraphModel>
  </diagram>
</mxfile>
